Coordinates
version=1
nRows=20
nColumns=38
inDegrees=no

Units are S.I. units (second, meters, Newtons, ...)
If the header above contains a line with 'inDegrees', this indicates whether rotational values are in degrees (yes) or radians (no).

endheader
time	pelvis_tilt	pelvis_list	pelvis_rotation	pelvis_tx	pelvis_ty	pelvis_tz	hip_flexion_r	hip_adduction_r	hip_rotation_r	knee_angle_r	ankle_angle_r	subtalar_angle_r	mtp_angle_r	hip_flexion_l	hip_adduction_l	hip_rotation_l	knee_angle_l	ankle_angle_l	subtalar_angle_l	mtp_angle_l	lumbar_extension	lumbar_bending	lumbar_rotation	arm_flex_r	arm_add_r	arm_rot_r	elbow_flex_r	pro_sup_r	wrist_flex_r	wrist_dev_r	arm_flex_l	arm_add_l	arm_rot_l	elbow_flex_l	pro_sup_l	wrist_flex_l	wrist_dev_l
0	1.89138	1.45699	-0.296199	0.722466	0.618928	1.02626	0.325242	0.13363	-0.13398	0.673234	-0.13422	0	0	-0.0432102	-0.119319	-0.0511735	1.09469	-0.170789	0	0	-0.335622	0.125169	-0.0182759	0.0485633	-0.420741	1.01696	0.493529	0.831799	0	0	-0.187027	-0.300022	0.40415	0.584852	1.04461	0	0
0.01	1.83377	1.46186	-0.244408	0.724541	0.628683	1.02677	0.321107	0.136112	-0.122668	0.668976	-0.126747	0	0	-0.00658567	-0.115828	-0.0537244	1.13626	-0.160637	0	0	-0.329902	0.118827	-0.00107274	0.00868327	-0.395435	0.839442	0.481553	0.999899	0	0	-0.182068	-0.300391	0.39859	0.587432	1.06053	0	0
0.02	1.85335	1.46504	-0.269953	0.726374	0.63861	1.02818	0.305707	0.136189	-0.11692	0.662457	-0.121597	0	0	0.0172337	-0.109219	-0.0527944	1.16686	-0.151077	0	0	-0.332466	0.112472	0.00699565	0.00635134	-0.389171	0.81961	0.476501	1.01554	0	0	-0.180833	-0.301375	0.395186	0.590677	1.06484	0	0
0.03	1.89102	1.4684	-0.313927	0.728123	0.648532	1.02975	0.28774	0.135167	-0.112762	0.655412	-0.117017	0	0	0.039094	-0.100921	-0.0499825	1.19279	-0.14264	0	0	-0.33685	0.105276	0.0144455	0.00515736	-0.383126	0.801759	0.471853	1.03045	0	0	-0.178776	-0.302153	0.393608	0.592313	1.06712	0	0
0.04	1.93185	1.47244	-0.361159	0.729681	0.658364	1.0313	0.270047	0.132555	-0.10957	0.648753	-0.112548	0	0	0.0606101	-0.092733	-0.048542	1.21362	-0.133274	0	0	-0.340393	0.0974136	0.0198471	0.0103322	-0.381812	0.816239	0.468698	1.01479	0	0	-0.177127	-0.301639	0.389677	0.591977	1.0701	0	0
0.05	1.96477	1.47701	-0.400194	0.731092	0.668072	1.03271	0.253506	0.129531	-0.106586	0.640849	-0.10727	0	0	0.0834172	-0.0858851	-0.0493183	1.2299	-0.122489	0	0	-0.34239	0.0896721	0.0242214	0.0154957	-0.380117	0.829171	0.465163	1.00044	0	0	-0.175163	-0.299981	0.384011	0.589466	1.07479	0	0
0.06	1.99918	1.48126	-0.440259	0.732428	0.677725	1.03407	0.237213	0.126663	-0.104453	0.632528	-0.102076	0	0	0.106141	-0.0805518	-0.0516793	1.24143	-0.112089	0	0	-0.344139	0.0825082	0.0277666	0.0203834	-0.378369	0.840273	0.461942	0.986736	0	0	-0.173112	-0.297983	0.377367	0.58619	1.08063	0	0
0.07	2.04013	1.48503	-0.486732	0.733688	0.687281	1.03545	0.220783	0.123366	-0.103852	0.624046	-0.0975796	0	0	0.127955	-0.0760843	-0.0553446	1.24794	-0.102803	0	0	-0.346263	0.0756857	0.0307342	0.025327	-0.377193	0.850712	0.459839	0.97426	0	0	-0.170922	-0.296075	0.370393	0.582986	1.08691	0	0
0.08	2.09217	1.48837	-0.544147	0.734872	0.696736	1.03696	0.203486	0.119066	-0.105413	0.614629	-0.0940757	0	0	0.148361	-0.0725028	-0.0613735	1.24902	-0.0952379	0	0	-0.3493	0.0688626	0.0332027	0.030758	-0.376303	0.861105	0.458232	0.963255	0	0	-0.168666	-0.294621	0.363281	0.580691	1.09273	0	0
0.09	2.14301	1.49213	-0.59998	0.736034	0.706171	1.0384	0.186846	0.114062	-0.108214	0.60505	-0.0904077	0	0	0.168903	-0.0691824	-0.0687944	1.24532	-0.0895158	0	0	-0.353574	0.0616458	0.039611	0.0123617	-0.35878	0.741747	0.454356	1.08265	0	0	-0.164087	-0.293839	0.356921	0.57972	1.10155	0	0
0.1	2.19292	1.49593	-0.654663	0.737157	0.715527	1.03964	0.170996	0.108922	-0.110103	0.595682	-0.0856982	0	0	0.189481	-0.0668485	-0.0784145	1.23751	-0.0845646	0	0	-0.354055	0.0545491	0.0383386	0.0230992	-0.358397	0.772169	0.448555	1.06244	0	0	-0.165759	-0.29385	0.346946	0.581569	1.10344	0	0
0.11	2.24017	1.49974	-0.706142	0.738166	0.724828	1.04061	0.156803	0.104002	-0.112477	0.588815	-0.0825506	0	0	0.210011	-0.0653618	-0.0889252	1.22614	-0.0813324	0	0	-0.355102	0.0480669	0.0397616	0.0251732	-0.356575	0.766884	0.448107	1.07037	0	0	-0.164699	-0.296207	0.347194	0.583948	1.09938	0	0
0.12	2.2919	1.50267	-0.761886	0.739065	0.734132	1.04148	0.141977	0.0996455	-0.113796	0.58123	-0.0790578	0	0	0.228915	-0.0653589	-0.101358	1.21056	-0.0790661	0	0	-0.356684	0.0423592	0.0412497	0.0264997	-0.354921	0.758847	0.448445	1.0794	0	0	-0.163549	-0.298547	0.348127	0.5862	1.09481	0	0
0.13	2.3439	1.50498	-0.818241	0.739854	0.743424	1.04224	0.126657	0.0958098	-0.112904	0.572356	-0.0769406	0	0	0.246473	-0.0665749	-0.115787	1.19122	-0.0771718	0	0	-0.358005	0.0372747	0.0416002	0.0349368	-0.35869	0.790323	0.44939	1.04877	0	0	-0.16448	-0.297367	0.33629	0.587201	1.10157	0	0
0.14	2.42686	1.50556	-0.90623	0.740622	0.752683	1.04309	0.107972	0.0918307	-0.11023	0.561195	-0.0721673	0	0	0.259912	-0.068506	-0.133795	1.16683	-0.077367	0	0	-0.363564	0.0316219	0.0460917	0.0277615	-0.353922	0.739521	0.453491	1.09803	0	0	-0.15986	-0.303021	0.352794	0.589893	1.08354	0	0
0.15	2.51167	1.50478	-0.996599	0.741416	0.762049	1.04377	0.0876645	0.0890288	-0.107404	0.549048	-0.066168	0	0	0.271265	-0.0723597	-0.155854	1.13852	-0.0800856	0	0	-0.367798	0.0262745	0.0462698	0.0396292	-0.36302	0.794925	0.459255	1.04355	0	0	-0.161072	-0.304727	0.350652	0.593023	1.07952	0	0
0.16	2.57225	1.50479	-1.062	0.742267	0.771652	1.04408	0.0685597	0.087567	-0.106101	0.536757	-0.0605973	0	0	0.283341	-0.0789629	-0.181256	1.10861	-0.0842938	0	0	-0.370289	0.0215735	0.0483696	0.0388078	-0.363274	0.785782	0.46403	1.05178	0	0	-0.161003	-0.30699	0.352	0.595435	1.07606	0	0
0.17	2.62475	1.5029	-1.12073	0.74316	0.781224	1.04441	0.0491926	0.0859064	-0.102302	0.525572	-0.0563084	0	0	0.292808	-0.0924542	-0.219534	1.0782	-0.0926614	0	0	-0.374539	0.0178359	0.052124	0.0372981	-0.36457	0.774227	0.471053	1.06225	0	0	-0.160859	-0.308532	0.352852	0.598189	1.07382	0	0
0.18	2.65717	1.49942	-1.16178	0.744224	0.791098	1.04457	0.0289581	0.0852299	-0.0964866	0.514377	-0.0535652	0	0	0.299691	-0.119359	-0.285451	1.05041	-0.106231	0	0	-0.377814	0.0150491	0.0556071	0.0406018	-0.36662	0.78266	0.474384	1.06086	0	0	-0.165549	-0.307829	0.342223	0.603114	1.0776	0	0
0.19	2.69399	1.49597	-1.20602	0.745066	0.800718	1.04467	0.0084273	0.0839347	-0.0911897	0.502475	-0.0506759	0	0	0.302253	-0.137618	-0.33821	1.014	-0.118749	0	0	-0.382843	0.0121623	0.0597888	0.0430229	-0.371999	0.793037	0.483237	1.05041	0	0	-0.167525	-0.30916	0.340123	0.609018	1.0764	0	0
